# xmcd CD database file
#
# Track frame offsets:
#	150
#	33352
#	60321
#	66957
#	85873
#	92605
#	102655
#	113162
#	147534
#	153583
#	182091
#
# Disc length: 2844 seconds
#
# Revision: 0
# Processed by: cddbd v1.5.2PL0 Copyright (c) Steve Scherf et al.
# Submitted via: CDex 1.51
#
DISCID=940b1a0b
DTITLE=The Benzene Ring - Breathing Water in a Dream
DYEAR=2007
DGENRE=Salsa
TTITLE0=You and Me in the Absence of Predators
TTITLE1=An Old Man Dies and Finds Himself in Hell
TTITLE2=We'll Keep You There
TTITLE3=Sweet Pioneer
TTITLE4=Treasure in the Straw
TTITLE5=Magical Road
TTITLE6=Shuffling the Deck
TTITLE7=Help is on the Way
TTITLE8=Sleeping
TTITLE9=How to be a Girl
TTITLE10=Pretend I'm Not Here
EXTD=YEAR: 2007
EXTT0=
EXTT1=
EXTT2=
EXTT3=
EXTT4=
EXTT5=
EXTT6=
EXTT7=
EXTT8=
EXTT9=
EXTT10=
PLAYORDER=
